<svg width="280" height="155" viewBox="0 0 280 155" fill="none" xmlns="http://www.w3.org/2000/svg">
<path fill-rule="evenodd" clip-rule="evenodd" d="M234.865 121.286C259.551 121.286 279.562 101.274 279.562 76.5885C279.562 51.9028 259.551 31.8911 234.865 31.8911C210.179 31.8911 190.167 51.9028 190.167 76.5885C190.167 101.274 210.179 121.286 234.865 121.286Z" fill="white" fill-opacity="0.8"/>
<path fill-rule="evenodd" clip-rule="evenodd" d="M140.61 154.409C183.249 154.409 217.815 119.843 217.815 77.2046C217.815 34.5657 183.249 0 140.61 0C97.9712 0 63.4055 34.5657 63.4055 77.2046C63.4055 119.843 97.9712 154.409 140.61 154.409Z" fill="white"/>
<path fill-rule="evenodd" clip-rule="evenodd" d="M44.6974 121.286C69.3831 121.286 89.3948 101.274 89.3948 76.5885C89.3948 51.9028 69.3831 31.8911 44.6974 31.8911C20.0117 31.8911 0 51.9028 0 76.5885C0 101.274 20.0117 121.286 44.6974 121.286Z" fill="white" fill-opacity="0.6"/>
</svg>
