<svg width="435" height="196" viewBox="0 0 435 196" fill="none" xmlns="http://www.w3.org/2000/svg">
<path fill-rule="evenodd" clip-rule="evenodd" d="M222.285 96.3506L318.317 0.282888C318.694 -0.094296 319.305 -0.094296 319.682 0.282888L415.716 96.3506C416.323 96.9602 415.893 98 415.031 98H222.968C222.108 98 221.676 96.9602 222.285 96.3506Z" fill="#C6DCE8"/>
<path fill-rule="evenodd" clip-rule="evenodd" d="M254.264 98.1779C262.884 98.1779 269.871 91.1903 269.871 82.5706C269.871 73.9508 262.884 66.9632 254.264 66.9632C245.644 66.9632 238.656 73.9508 238.656 82.5706C238.656 91.1903 245.644 98.1779 254.264 98.1779Z" fill="#8293AB"/>
<path fill-rule="evenodd" clip-rule="evenodd" d="M76.073 96.6315L166.741 6.56581C167.097 6.21219 167.675 6.21219 168.031 6.56581L258.701 96.6315C259.274 97.2031 258.868 98.1779 258.054 98.1779H76.7176C75.9056 98.1779 75.4976 97.2031 76.073 96.6315Z" fill="#BED3DE"/>
<path fill-rule="evenodd" clip-rule="evenodd" d="M32.1367 97.2258L78.1724 52.1328C78.3532 51.9557 78.6463 51.9557 78.827 52.1328L124.864 97.2258C125.155 97.5119 124.949 98 124.535 98H32.464C32.0517 98 31.8446 97.5119 32.1367 97.2258Z" fill="#BCD0DB"/>
<path fill-rule="evenodd" clip-rule="evenodd" d="M80.5154 98.1779C80.5154 75.1648 99.5035 55.773 122.92 55.773C146.337 55.773 165.325 75.1648 165.325 98.1779L133.521 98.1779C133.521 92.4244 128.774 87.5768 122.92 87.5768C117.066 87.5768 112.319 92.4244 112.319 98.1779L80.5154 98.1779Z" fill="#616F8F"/>
<path fill-rule="evenodd" clip-rule="evenodd" d="M207 124C207 114.774 214.836 107 224.5 107C234.164 107 242 114.774 242 124L228.875 124C228.875 121.693 226.916 119.75 224.5 119.75C222.084 119.75 220.125 121.693 220.125 124L207 124Z" fill="#62B685"/>
<path fill-rule="evenodd" clip-rule="evenodd" d="M162.208 155.178C162.208 140.795 174.076 128.675 188.711 128.675C203.347 128.675 215.214 140.795 215.214 155.178L195.337 155.178C195.337 151.582 192.37 148.552 188.711 148.552C185.053 148.552 182.086 151.582 182.086 155.178L162.208 155.178Z" fill="#498964"/>
<path fill-rule="evenodd" clip-rule="evenodd" d="M107.677 132.178H71.062V95.5629L107.677 132.178Z" fill="#F78301"/>
<path fill-rule="evenodd" clip-rule="evenodd" d="M71.062 95.5629H107.677V132.178L71.062 95.5629Z" fill="#28325A"/>
<path fill-rule="evenodd" clip-rule="evenodd" d="M64.859 95.1384L89.7157 70.2986C89.8132 70.2011 89.9715 70.2011 90.0691 70.2986L114.926 95.1384C115.084 95.296 114.972 95.5649 114.749 95.5649H65.0357C64.8131 95.5649 64.7012 95.296 64.859 95.1384Z" fill="#FFBD33"/>
<path fill-rule="evenodd" clip-rule="evenodd" d="M332.42 127.95H281.742V77.3068L332.42 127.95Z" fill="#FC9688"/>
<path fill-rule="evenodd" clip-rule="evenodd" d="M281.821 77.3784H332.499V128.021L281.821 77.3784Z" fill="#28325A"/>
<path fill-rule="evenodd" clip-rule="evenodd" d="M272.423 76.778L307.408 41.8172C307.545 41.6799 307.768 41.6799 307.905 41.8172L342.89 76.778C343.112 76.9999 342.955 77.3783 342.641 77.3783H272.672C272.358 77.3783 272.201 76.9999 272.423 76.778Z" fill="#6FCF97"/>
<path fill-rule="evenodd" clip-rule="evenodd" d="M389.951 116.247H355.792V82.8935L389.951 116.247Z" fill="#FFBD33"/>
<path fill-rule="evenodd" clip-rule="evenodd" d="M355.792 82.8937H389.951V116.247L355.792 82.8937Z" fill="#28325A"/>
<path fill-rule="evenodd" clip-rule="evenodd" d="M349.97 82.4982L373.011 59.473C373.102 59.3826 373.248 59.3826 373.339 59.473L396.38 82.4982C396.526 82.6443 396.423 82.8935 396.216 82.8935H350.134C349.928 82.8935 349.824 82.6443 349.97 82.4982Z" fill="#5196CB"/>
<rect x="31.7793" y="83.908" width="15.3129" height="28.2699" fill="#B6834A"/>
<path fill-rule="evenodd" clip-rule="evenodd" d="M39.1411 85.6748C49.7124 85.6748 58.2822 77.105 58.2822 66.5337C58.2822 55.9623 49.7124 47.3926 39.1411 47.3926C28.5698 47.3926 20 55.9623 20 66.5337C20 77.105 28.5698 85.6748 39.1411 85.6748Z" fill="#6FCF97"/>
</svg>
