<svg width="335" height="41" viewBox="0 0 335 41" fill="none" xmlns="http://www.w3.org/2000/svg">
<path fill-rule="evenodd" clip-rule="evenodd" d="M41.9633 40.3599H33.9467L27.4229 18.1343L26.8696 15.4808L26.3724 18.1343L19.7929 40.3599H11.7763L0 1.65875H8.01661L15.3149 26.3171L15.9226 29.1369L16.4202 26.3171L23.3868 1.65875H30.3529L37.3742 26.3171L37.8166 29.1369L38.4247 26.3171L45.723 1.65875H53.7396L41.9633 40.3599Z" fill="#28325A"/>
<path fill-rule="evenodd" clip-rule="evenodd" d="M105.713 22.1704V40.3599H98.4703V23.7181C98.4703 20.456 97.088 18.6872 94.4894 18.6872C91.7253 18.6872 89.5137 20.8988 89.5137 25.5427V40.3599H82.3813V12.3293H88.5185L89.0714 15.9784C90.3431 13.6009 92.886 11.7211 96.6457 11.7211C102.617 11.7211 105.713 15.8125 105.713 22.1704" fill="#28325A"/>
<path fill-rule="evenodd" clip-rule="evenodd" d="M184.885 19.2403C182.674 19.2403 180.96 19.627 179.301 20.8986C177.974 21.9491 177.145 23.5525 177.034 26.0954V40.3598H169.847V12.3291H176.039L176.702 16.8076C177.642 14.3191 180.13 12.0527 184.885 12.0527V19.2403Z" fill="#28325A"/>
<path fill-rule="evenodd" clip-rule="evenodd" d="M206.558 20.567H199.426C199.371 18.5212 198.375 17.3606 196.219 17.3606C194.174 17.3606 193.123 18.5212 193.123 20.1246C193.123 21.8382 194.118 22.668 198.044 23.3314C204.844 24.4925 207.166 27.257 207.166 31.8456C207.166 38.2035 202.135 40.968 196.33 40.968C189.419 40.968 185.549 37.3742 185.383 31.8456H192.46C192.515 34.1121 194.063 35.2736 196.496 35.2736C198.707 35.2736 199.979 34.2784 199.979 32.6197C199.979 30.9057 199.094 29.9101 194.892 29.1369C188.755 28.0859 185.936 25.4324 185.936 20.8434C185.936 15.9783 189.364 11.721 196.275 11.721C202.19 11.721 206.337 15.2591 206.558 20.567" fill="#28325A"/>
<path fill-rule="evenodd" clip-rule="evenodd" d="M235.031 22.2255H228.065C227.236 19.6826 225.079 18.2451 222.26 18.2451C218.39 18.2451 215.459 21.6178 215.459 26.3723C215.459 31.0166 218.334 34.3889 222.426 34.3889C225.301 34.3889 227.457 32.7298 228.12 30.4633H235.142C233.815 37.4294 228.563 40.9683 222.094 40.9683C213.912 40.9683 208.051 35.0519 208.051 26.3723C208.051 17.9133 213.912 11.7213 222.094 11.7213C228.673 11.7213 233.981 15.1489 235.031 22.2255" fill="#28325A"/>
<path fill-rule="evenodd" clip-rule="evenodd" d="M245.205 15.2591C246.422 13.435 248.688 11.721 252.337 11.721C258.308 11.721 261.404 15.8124 261.404 22.1704V40.3599H254.161V23.7181C254.161 20.456 252.78 18.6871 250.181 18.6871C247.417 18.6871 245.205 20.8987 245.205 25.5426V40.3599H238.073V0H245.205V15.2591Z" fill="#28325A"/>
<path fill-rule="evenodd" clip-rule="evenodd" d="M327.032 40.36H334.22V0.00012207H327.032V40.36Z" fill="#28325A"/>
<path fill-rule="evenodd" clip-rule="evenodd" d="M64.7439 40.9681C73.2024 40.9681 79.5054 34.9968 79.5054 26.3171C79.5054 17.6367 73.2024 11.7211 64.7439 11.7211C56.3399 11.7211 50.0925 17.6367 50.0925 26.3171C50.0925 34.9968 56.3399 40.9681 64.7439 40.9681ZM64.7989 34.389C60.4867 34.389 57.5011 30.9058 57.5011 26.3171C57.5011 21.6728 60.4867 18.2452 64.7989 18.2452C69.1668 18.2452 72.0419 21.6728 72.0419 26.3171C72.0419 30.9058 69.1668 34.389 64.7989 34.389Z" fill="#28325A"/>
<path fill-rule="evenodd" clip-rule="evenodd" d="M130.593 40.3598H136.785V0H129.598V15.3701C128.105 13.3793 125.174 11.721 121.194 11.721C113.619 11.721 108.146 18.0789 108.146 26.3171C108.146 34.5544 113.619 40.968 121.139 40.968C125.948 40.968 128.492 38.867 130.04 36.6001L130.593 40.3598ZM122.631 34.2231C118.65 34.2231 115.554 31.1269 115.554 26.3171C115.554 21.5626 118.706 18.4659 122.631 18.4659C126.114 18.4659 129.653 21.1751 129.708 26.1512V26.4825C129.708 31.5139 126.169 34.2231 122.631 34.2231Z" fill="#28325A"/>
<path fill-rule="evenodd" clip-rule="evenodd" d="M166.53 28.5283V26.3171C166.53 16.3654 160.946 11.7211 153.537 11.7211C145.189 11.7211 139.604 17.9131 139.604 26.3724C139.604 35.218 145.244 40.9681 153.537 40.9681C160.337 40.9681 164.65 37.4853 166.364 31.5693H159.398C158.624 33.6699 156.523 34.8314 153.758 34.8314C149.833 34.8314 147.234 32.2323 147.013 28.5283H166.53ZM159.288 23.5527H147.069C147.401 20.1247 149.778 17.692 153.372 17.692C156.91 17.692 159.232 20.0137 159.288 23.5527Z" fill="#28325A"/>
<path fill-rule="evenodd" clip-rule="evenodd" d="M278.489 40.9681C286.948 40.9681 293.25 34.9968 293.25 26.3171C293.25 17.6367 286.948 11.7211 278.489 11.7211C270.085 11.7211 263.837 17.6367 263.837 26.3171C263.837 34.9968 270.085 40.9681 278.489 40.9681ZM278.544 34.389C274.232 34.389 271.246 30.9058 271.246 26.3171C271.246 21.6728 274.232 18.2452 278.544 18.2452C282.912 18.2452 285.787 21.6728 285.787 26.3171C285.787 30.9058 282.912 34.389 278.544 34.389Z" fill="#28325A"/>
<path fill-rule="evenodd" clip-rule="evenodd" d="M309.34 40.9681C317.799 40.9681 324.101 34.9968 324.101 26.3171C324.101 17.6367 317.799 11.7211 309.34 11.7211C300.936 11.7211 294.688 17.6367 294.688 26.3171C294.688 34.9968 300.936 40.9681 309.34 40.9681ZM309.396 34.389C305.083 34.389 302.098 30.9058 302.098 26.3171C302.098 21.6728 305.083 18.2452 309.396 18.2452C313.764 18.2452 316.639 21.6728 316.639 26.3171C316.639 30.9058 313.764 34.389 309.396 34.389Z" fill="#28325A"/>
</svg>
